<mxfile host="app.diagrams.net" agent="Mozilla/5.0 (Windows NT 10.0; Win64; x64) AppleWebKit/537.36 (KHTML, like Gecko) Chrome/132.0.0.0 Safari/537.36 Edg/132.0.0.0" version="26.0.8">
  <diagram name="Page-1" id="sJJkj63z8r_LEbojr3ND">
    <mxGraphModel dx="1483" dy="636" grid="1" gridSize="10" guides="1" tooltips="1" connect="1" arrows="1" fold="1" page="1" pageScale="1" pageWidth="827" pageHeight="1169" math="0" shadow="0">
      <root>
        <mxCell id="0" />
        <mxCell id="1" parent="0" />
        <mxCell id="ykqr6gio5O9PTQXeHabU-37" value="User" style="swimlane;whiteSpace=wrap;html=1;" vertex="1" parent="1">
          <mxGeometry x="40" y="90" width="200" height="200" as="geometry" />
        </mxCell>
        <mxCell id="ykqr6gio5O9PTQXeHabU-39" value="&lt;b&gt;&lt;font style=&quot;font-size: 14px;&quot;&gt;user_id&lt;/font&gt;&lt;/b&gt;" style="text;html=1;align=center;verticalAlign=middle;whiteSpace=wrap;rounded=0;" vertex="1" parent="ykqr6gio5O9PTQXeHabU-37">
          <mxGeometry x="65" y="30" width="70" height="40" as="geometry" />
        </mxCell>
        <mxCell id="ykqr6gio5O9PTQXeHabU-40" value="&lt;font style=&quot;font-size: 14px;&quot;&gt;&lt;b&gt;username&lt;/b&gt;&lt;/font&gt;" style="text;html=1;align=center;verticalAlign=middle;whiteSpace=wrap;rounded=0;" vertex="1" parent="ykqr6gio5O9PTQXeHabU-37">
          <mxGeometry x="65" y="70" width="70" height="40" as="geometry" />
        </mxCell>
        <mxCell id="ykqr6gio5O9PTQXeHabU-41" value="&lt;b&gt;&lt;font style=&quot;font-size: 14px;&quot;&gt;email&lt;/font&gt;&lt;/b&gt;" style="text;html=1;align=center;verticalAlign=middle;whiteSpace=wrap;rounded=0;" vertex="1" parent="ykqr6gio5O9PTQXeHabU-37">
          <mxGeometry x="65" y="110" width="70" height="40" as="geometry" />
        </mxCell>
        <mxCell id="ykqr6gio5O9PTQXeHabU-42" value="&lt;font style=&quot;font-size: 14px;&quot;&gt;&lt;b&gt;role&lt;/b&gt;&lt;/font&gt;" style="text;html=1;align=center;verticalAlign=middle;whiteSpace=wrap;rounded=0;" vertex="1" parent="ykqr6gio5O9PTQXeHabU-37">
          <mxGeometry x="65" y="150" width="70" height="40" as="geometry" />
        </mxCell>
        <mxCell id="ykqr6gio5O9PTQXeHabU-43" value="Bikes" style="swimlane;whiteSpace=wrap;html=1;" vertex="1" parent="1">
          <mxGeometry x="40" y="350" width="200" height="200" as="geometry" />
        </mxCell>
        <mxCell id="ykqr6gio5O9PTQXeHabU-44" value="&lt;font style=&quot;font-size: 14px;&quot;&gt;&lt;b&gt;Bike_id&lt;/b&gt;&lt;/font&gt;" style="text;html=1;align=center;verticalAlign=middle;whiteSpace=wrap;rounded=0;" vertex="1" parent="ykqr6gio5O9PTQXeHabU-43">
          <mxGeometry x="65" y="20" width="70" height="40" as="geometry" />
        </mxCell>
        <mxCell id="ykqr6gio5O9PTQXeHabU-45" value="&lt;font style=&quot;font-size: 14px;&quot;&gt;&lt;b&gt;brand&lt;/b&gt;&lt;/font&gt;" style="text;html=1;align=center;verticalAlign=middle;whiteSpace=wrap;rounded=0;" vertex="1" parent="ykqr6gio5O9PTQXeHabU-43">
          <mxGeometry x="65" y="60" width="70" height="40" as="geometry" />
        </mxCell>
        <mxCell id="ykqr6gio5O9PTQXeHabU-46" value="&lt;font style=&quot;font-size: 14px;&quot;&gt;&lt;b&gt;model&lt;/b&gt;&lt;/font&gt;" style="text;html=1;align=center;verticalAlign=middle;whiteSpace=wrap;rounded=0;" vertex="1" parent="ykqr6gio5O9PTQXeHabU-43">
          <mxGeometry x="65" y="100" width="70" height="40" as="geometry" />
        </mxCell>
        <mxCell id="ykqr6gio5O9PTQXeHabU-47" value="&lt;font style=&quot;font-size: 14px;&quot;&gt;&lt;b&gt;mileage&lt;/b&gt;&lt;/font&gt;" style="text;html=1;align=center;verticalAlign=middle;whiteSpace=wrap;rounded=0;" vertex="1" parent="ykqr6gio5O9PTQXeHabU-43">
          <mxGeometry x="65" y="140" width="70" height="40" as="geometry" />
        </mxCell>
        <mxCell id="ykqr6gio5O9PTQXeHabU-53" value="Listings" style="swimlane;whiteSpace=wrap;html=1;" vertex="1" parent="1">
          <mxGeometry x="470" y="130" width="200" height="220" as="geometry" />
        </mxCell>
        <mxCell id="ykqr6gio5O9PTQXeHabU-54" value="&lt;b&gt;&lt;font style=&quot;font-size: 14px;&quot;&gt;listing_id&lt;/font&gt;&lt;/b&gt;" style="text;html=1;align=center;verticalAlign=middle;whiteSpace=wrap;rounded=0;" vertex="1" parent="ykqr6gio5O9PTQXeHabU-53">
          <mxGeometry x="65" y="30" width="70" height="40" as="geometry" />
        </mxCell>
        <mxCell id="ykqr6gio5O9PTQXeHabU-55" value="&lt;font style=&quot;font-size: 14px;&quot;&gt;&lt;b&gt;bike_id&lt;/b&gt;&lt;/font&gt;" style="text;html=1;align=center;verticalAlign=middle;whiteSpace=wrap;rounded=0;" vertex="1" parent="ykqr6gio5O9PTQXeHabU-53">
          <mxGeometry x="65" y="70" width="70" height="40" as="geometry" />
        </mxCell>
        <mxCell id="ykqr6gio5O9PTQXeHabU-56" value="&lt;b&gt;&lt;font style=&quot;font-size: 14px;&quot;&gt;seller_id&lt;/font&gt;&lt;/b&gt;" style="text;html=1;align=center;verticalAlign=middle;whiteSpace=wrap;rounded=0;" vertex="1" parent="ykqr6gio5O9PTQXeHabU-53">
          <mxGeometry x="65" y="110" width="70" height="40" as="geometry" />
        </mxCell>
        <mxCell id="ykqr6gio5O9PTQXeHabU-57" value="&lt;font style=&quot;font-size: 14px;&quot;&gt;&lt;b&gt;price&lt;/b&gt;&lt;/font&gt;" style="text;html=1;align=center;verticalAlign=middle;whiteSpace=wrap;rounded=0;" vertex="1" parent="ykqr6gio5O9PTQXeHabU-53">
          <mxGeometry x="65" y="150" width="70" height="40" as="geometry" />
        </mxCell>
        <mxCell id="ykqr6gio5O9PTQXeHabU-68" value="&lt;b style=&quot;forced-color-adjust: none; color: rgb(0, 0, 0); font-family: Helvetica; font-size: 14px; font-style: normal; font-variant-ligatures: normal; font-variant-caps: normal; letter-spacing: normal; orphans: 2; text-align: center; text-indent: 0px; text-transform: none; widows: 2; word-spacing: 0px; -webkit-text-stroke-width: 0px; white-space: normal; background-color: rgb(251, 251, 251); text-decoration-thickness: initial; text-decoration-style: initial; text-decoration-color: initial;&quot;&gt;status&lt;/b&gt;" style="text;whiteSpace=wrap;html=1;" vertex="1" parent="ykqr6gio5O9PTQXeHabU-53">
          <mxGeometry x="80" y="190" width="70" height="40" as="geometry" />
        </mxCell>
        <mxCell id="ykqr6gio5O9PTQXeHabU-71" value="Transactions" style="swimlane;whiteSpace=wrap;html=1;" vertex="1" parent="1">
          <mxGeometry x="480" y="420" width="200" height="220" as="geometry" />
        </mxCell>
        <mxCell id="ykqr6gio5O9PTQXeHabU-72" value="&lt;b&gt;&lt;font style=&quot;font-size: 14px;&quot;&gt;transaction_id&lt;/font&gt;&lt;/b&gt;" style="text;html=1;align=center;verticalAlign=middle;whiteSpace=wrap;rounded=0;" vertex="1" parent="ykqr6gio5O9PTQXeHabU-71">
          <mxGeometry x="65" y="30" width="70" height="40" as="geometry" />
        </mxCell>
        <mxCell id="ykqr6gio5O9PTQXeHabU-73" value="&lt;font style=&quot;font-size: 14px;&quot;&gt;&lt;b&gt;listing_id&lt;/b&gt;&lt;/font&gt;" style="text;html=1;align=center;verticalAlign=middle;whiteSpace=wrap;rounded=0;" vertex="1" parent="ykqr6gio5O9PTQXeHabU-71">
          <mxGeometry x="65" y="70" width="70" height="40" as="geometry" />
        </mxCell>
        <mxCell id="ykqr6gio5O9PTQXeHabU-74" value="&lt;b&gt;&lt;font style=&quot;font-size: 14px;&quot;&gt;buyer_id&lt;/font&gt;&lt;/b&gt;" style="text;html=1;align=center;verticalAlign=middle;whiteSpace=wrap;rounded=0;" vertex="1" parent="ykqr6gio5O9PTQXeHabU-71">
          <mxGeometry x="65" y="110" width="70" height="40" as="geometry" />
        </mxCell>
        <mxCell id="ykqr6gio5O9PTQXeHabU-75" value="&lt;font style=&quot;font-size: 14px;&quot;&gt;&lt;b&gt;transaction_date&lt;/b&gt;&lt;/font&gt;" style="text;html=1;align=center;verticalAlign=middle;whiteSpace=wrap;rounded=0;" vertex="1" parent="ykqr6gio5O9PTQXeHabU-71">
          <mxGeometry x="65" y="150" width="70" height="40" as="geometry" />
        </mxCell>
        <mxCell id="ykqr6gio5O9PTQXeHabU-76" value="&lt;b style=&quot;forced-color-adjust: none; color: rgb(0, 0, 0); font-family: Helvetica; font-size: 14px; font-style: normal; font-variant-ligatures: normal; font-variant-caps: normal; letter-spacing: normal; orphans: 2; text-align: center; text-indent: 0px; text-transform: none; widows: 2; word-spacing: 0px; -webkit-text-stroke-width: 0px; white-space: normal; background-color: rgb(251, 251, 251); text-decoration-thickness: initial; text-decoration-style: initial; text-decoration-color: initial;&quot;&gt;amout&lt;/b&gt;" style="text;whiteSpace=wrap;html=1;" vertex="1" parent="ykqr6gio5O9PTQXeHabU-71">
          <mxGeometry x="80" y="190" width="70" height="40" as="geometry" />
        </mxCell>
        <mxCell id="ykqr6gio5O9PTQXeHabU-77" value="" style="endArrow=classic;html=1;rounded=0;exitX=1;exitY=0.25;exitDx=0;exitDy=0;" edge="1" parent="1" source="ykqr6gio5O9PTQXeHabU-37">
          <mxGeometry width="50" height="50" relative="1" as="geometry">
            <mxPoint x="540" y="410" as="sourcePoint" />
            <mxPoint x="470" y="200" as="targetPoint" />
            <Array as="points">
              <mxPoint x="360" y="140" />
              <mxPoint x="360" y="200" />
            </Array>
          </mxGeometry>
        </mxCell>
        <mxCell id="ykqr6gio5O9PTQXeHabU-81" value="" style="endArrow=none;html=1;rounded=0;" edge="1" parent="1">
          <mxGeometry width="50" height="50" relative="1" as="geometry">
            <mxPoint x="240" y="440" as="sourcePoint" />
            <mxPoint x="470" y="280" as="targetPoint" />
            <Array as="points">
              <mxPoint x="320" y="440" />
              <mxPoint x="320" y="280" />
            </Array>
          </mxGeometry>
        </mxCell>
        <mxCell id="ykqr6gio5O9PTQXeHabU-83" value="" style="endArrow=none;html=1;rounded=0;entryX=1;entryY=0.5;entryDx=0;entryDy=0;" edge="1" parent="1" target="ykqr6gio5O9PTQXeHabU-53">
          <mxGeometry width="50" height="50" relative="1" as="geometry">
            <mxPoint x="680" y="520" as="sourcePoint" />
            <mxPoint x="950" y="330" as="targetPoint" />
            <Array as="points">
              <mxPoint x="760" y="520" />
              <mxPoint x="760" y="240" />
            </Array>
          </mxGeometry>
        </mxCell>
        <mxCell id="ykqr6gio5O9PTQXeHabU-84" value="" style="endArrow=classic;html=1;rounded=0;" edge="1" parent="1">
          <mxGeometry width="50" height="50" relative="1" as="geometry">
            <mxPoint x="370" y="200" as="sourcePoint" />
            <mxPoint x="480" y="470" as="targetPoint" />
            <Array as="points">
              <mxPoint x="370" y="410" />
              <mxPoint x="370" y="470" />
            </Array>
          </mxGeometry>
        </mxCell>
      </root>
    </mxGraphModel>
  </diagram>
</mxfile>
